<svg xmlns="http://www.w3.org/2000/svg" shape-rendering="geometricPrecision" text-rendering="geometricPrecision" image-rendering="optimizeQuality" fill-rule="evenodd" clip-rule="evenodd" viewBox="0 0 512 512"><g fill-rule="nonzero"><path d="M255.998 0c70.69 0 134.694 28.657 181.017 74.981C483.342 121.308 512 185.309 512 255.998c0 70.69-28.655 134.694-74.985 181.017C390.692 483.345 326.688 512 255.998 512c-70.689 0-134.69-28.658-181.017-74.985C28.657 390.692 0 326.688 0 255.998c0-70.689 28.657-134.687 74.981-181.017C121.311 28.657 185.309 0 255.998 0z"/><path fill="#fff" d="M278.502 349.762v-66.308h-45.005v66.308H173.49V162.24h60.007v66.308h45.005V162.24h60.01v187.522z"/></g></svg>